<?xml version="1.0" encoding="utf-8"?>
<!-- Generator: Adobe Illustrator 23.0.1, SVG Export Plug-In . SVG Version: 6.00 Build 0)  -->
<svg version="1.1" id="Calque_1" xmlns="http://www.w3.org/2000/svg" xmlns:xlink="http://www.w3.org/1999/xlink" x="0px" y="0px"
	 viewBox="0 0 400 400" width='20px' height='20px' style="enable-background:new 0 0 400 400;" xml:space="preserve">
<polygon points="0,200 84,284 99.5,268.4 41.7,210.7 189.3,210.7 189.3,358.3 131.6,300.5 116,316 200,400 284,316 268.4,300.5
	210.7,358.3 210.7,210.7 358.3,210.7 300.5,268.4 316,284 400,200 316,116 300.5,131.6 358.3,189.3 210.7,189.3 210.7,41.7
	268.4,99.5 284,84 200,0 116,84 131.6,99.5 189.3,41.7 189.3,189.3 41.7,189.3 99.5,131.6 84,116 "/>
</svg>
