<svg id="Calque_1" data-name="Calque 1" xmlns="http://www.w3.org/2000/svg" viewBox="0 0 453.54 453.54"><defs><style>.cls-1{fill:#545454;}</style></defs><path class="cls-1" d="M207.41,408.93c10.57-8.83,20.64-18.26,30.64-27.73,13.1-12.4,26-25,38.78-37.72q19.86-19.73,39.42-39.76,16.83-17.22,33.4-34.68c6.71-7.11,13.52-14.19,19.85-21.64.39-.45.77-.91,1.15-1.37A28.58,28.58,0,0,0,378,233.45a21.73,21.73,0,0,0,.51-11.36,21.28,21.28,0,0,0-3.39-10.6,28.6,28.6,0,0,0-10.22-10.22l-.68-.52,5.77,4.46c-7.71-6-14.82-12.74-21.91-19.4-10.72-10.06-21.23-20.33-31.68-30.65q-17.65-17.44-35.09-35.09-16.37-16.53-32.63-33.17-11.92-12.2-23.81-24.41c-.68-.69-1.35-1.39-2-2.09a21.45,21.45,0,0,0-9.17-5.89,25.83,25.83,0,0,0-22,0,21.48,21.48,0,0,0-9.18,5.89c-5,5.44-8.68,12.57-8.34,20.16l1,7.57a28.58,28.58,0,0,0,7.33,12.58q11.33,11.61,22.65,23.22,16.07,16.44,32.23,32.8,17.73,17.94,35.63,35.72c10.68,10.57,21.42,21.1,32.35,31.42,7.53,7.13,15.09,14.33,23.21,20.79,2.49,2,5,3.91,7.53,5.83l-5.77-44.76c-5.54,6.8-11.71,13.13-17.72,19.52q-15.9,16.91-32.13,33.5-19.38,19.9-39,39.52Q222,317.66,202.17,336.69c-10.47,10-21,19.93-32,29.35-1,.87-2,1.73-3.05,2.58a31.73,31.73,0,0,0-8.34,20.16,31.68,31.68,0,0,0,8.34,20.15c5.43,5,12.56,8.69,20.16,8.35l7.57-1a28.58,28.58,0,0,0,12.58-7.33Z"/></svg>