<svg id="Calque_1" data-name="Calque 1" xmlns="http://www.w3.org/2000/svg" viewBox="0 0 453.54 453.54"><defs><style>.cls-1{fill:#545454;}</style></defs><path class="cls-1" d="M312.09,368.62c-10.57-8.83-20.65-18.26-30.65-27.72-13.09-12.4-26-25-38.77-37.73q-19.87-19.73-39.42-39.76-16.83-17.22-33.4-34.68c-6.72-7.11-13.52-14.18-19.86-21.63-.38-.46-.77-.91-1.14-1.37l-5.77,44.76a342.47,342.47,0,0,0,27.2-23.28c10.71-10,21.21-20.27,31.65-30.58q17.92-17.67,35.61-35.58,16.47-16.63,32.84-33.39,12.15-12.42,24.27-24.86c.67-.7,1.35-1.39,2-2.09a21.36,21.36,0,0,0,5.89-9.17,21.5,21.5,0,0,0,2.45-11,21.45,21.45,0,0,0-2.45-11,21.39,21.39,0,0,0-5.89-9.18c-5.43-5-12.56-8.68-20.16-8.34s-14.79,2.85-20.15,8.34q-11.16,11.46-22.32,22.89-15.9,16.27-31.89,32.47Q184.7,133.43,167.06,151c-10.71,10.62-21.49,21.19-32.44,31.57-7.62,7.23-15.27,14.5-23.43,21.12-.65.53-1.3,1.05-2,1.57l5.77-4.46-.68.52a28.6,28.6,0,0,0-10.22,10.22,21.26,21.26,0,0,0-3.38,10.6,21.63,21.63,0,0,0,.5,11.36A28.58,28.58,0,0,0,108.54,246c5.54,6.81,11.72,13.14,17.72,19.52q15.9,16.92,32.14,33.51,19.38,19.9,39,39.52Q216.9,358,236.71,377c10.48,10,21,19.94,32,29.36,1,.86,2,1.73,3,2.58a21.39,21.39,0,0,0,9.18,5.89,25.73,25.73,0,0,0,22,0,21.36,21.36,0,0,0,9.17-5.89c5-5.43,8.69-12.56,8.35-20.15l-1-7.58a28.58,28.58,0,0,0-7.33-12.58Z"/></svg>