<?xml version="1.0" encoding="utf-8"?>
<!-- Generator: Adobe Illustrator 23.0.1, SVG Export Plug-In . SVG Version: 6.00 Build 0)  -->
<svg version="1.1" id="Calque_1" xmlns="http://www.w3.org/2000/svg" xmlns:xlink="http://www.w3.org/1999/xlink" x="0px" y="0px"
	 viewBox="0 0 400 400" style="enable-background:new 0 0 400 400;" xml:space="preserve">
<g>
	<path d="M281.2,399.8H118.5c-60,0-110-45.5-110-104.5V121.6c0-57.3,50-103.6,110-103.6h162.7c60.9,0,109.1,46.4,109.1,103.6v173.6
		C390.3,354.4,342.1,399.8,281.2,399.8z M118.5,55.3c-40,0-72.7,29.1-72.7,66.4v173.6c0,39.1,32.7,68.2,72.7,68.2h162.7
		c39.1,0,72.7-29.1,72.7-68.2V121.6c0-37.3-33.6-66.4-72.7-66.4C281.2,55.3,118.5,55.3,118.5,55.3z M199.4,306.2
		c-52.7,0-97.3-43.6-97.3-96.4c0-55.4,44.5-99.1,97.3-99.1c53.6,0,98.2,43.6,98.2,99.1C297.5,262.5,253,306.2,199.4,306.2z
		 M199.4,144.4c-34.5,0-62.7,28.2-62.7,65.4c0,34.5,28.2,62.7,62.7,62.7s64.5-28.2,64.5-62.7C263.9,172.5,233.9,144.4,199.4,144.4z
		 M326.6,106.2c0,12.7-9.1,24.5-22.7,24.5s-24.5-11.8-24.5-24.5c0-13.6,10.9-22.7,24.5-22.7C317.5,83.5,326.6,92.5,326.6,106.2z"/>
</g>
</svg>
