<svg id="Calque_1" data-name="Calque 1" xmlns="http://www.w3.org/2000/svg" viewBox="0 0 993.88 453.54"><defs><style>.cls-1{fill:#545454;}</style></defs><path class="cls-1" d="M926.35,211c-54.78-6.92-109.83-11.57-165-14.55-56.43-3.05-112.95-4.38-169.46-4.58-57.26-.21-114.51.75-171.74,2.36s-114.51,3.86-171.74,6.28c-56.51,2.39-113,4.94-169.52,7.17L58,208.5c-14.88.56-29.2,12.7-28.5,28.5C30.18,252,42.06,266.1,58,265.5c56.37-2.14,112.72-4.66,169.08-7.07,57.19-2.45,114.38-4.8,171.59-6.56s114.56-2.94,171.86-3c56.64-.07,113.29.92,169.87,3.55C795.75,255,851,259.14,906.05,265.55q10.16,1.17,20.3,2.46c6.71.85,15.6-3.79,20.15-8.34,4.94-5,8.66-13.06,8.35-20.16-.33-7.37-2.75-15-8.35-20.15l-5.77-4.46A28.47,28.47,0,0,0,926.35,211Z"/></svg>