<?xml version="1.0" encoding="utf-8"?>
<!-- Generator: Adobe Illustrator 23.0.1, SVG Export Plug-In . SVG Version: 6.00 Build 0)  -->
<svg version="1.1" id="Calque_1" xmlns="http://www.w3.org/2000/svg" xmlns:xlink="http://www.w3.org/1999/xlink" x="0px" y="0px"
	 viewBox="0 0 400 400" style="enable-background:new 0 0 400 400;" xml:space="preserve">
<g>
	<path d="M55.05,105.33c-25.97,0-46.08-20.11-46.08-46.08s20.11-45.24,46.08-45.24c24.3,0,45.24,19.27,45.24,45.24
		S79.35,105.33,55.05,105.33z M93.6,391.03H14.84V139.68H93.6V391.03z M217.59,174.03c9.22-15.08,35.19-41.05,76.24-41.05
		c44.41,0,92.16,25.14,92.16,102.22v155.84h-78.76V254.47c0-41.05-17.59-53.62-40.22-53.62c-23.46,0-46.92,17.59-46.92,53.62v136.57
		h-78.76V139.68h76.24V174.03z"/>
</g>
</svg>
