<?xml version="1.0" encoding="utf-8"?>
<!-- Generator: Adobe Illustrator 23.0.1, SVG Export Plug-In . SVG Version: 6.00 Build 0)  -->
<svg version="1.1" id="Calque_1" xmlns="http://www.w3.org/2000/svg" xmlns:xlink="http://www.w3.org/1999/xlink" x="0px" y="0px"
	 viewBox="0 0 400 400" style="enable-background:new 0 0 400 400;" xml:space="preserve">
<g>
	<path d="M350.15,234.06c-47.2,47.92-121.99,51.55-173.54,10.16L40.1,380.74l-1.45,1.45c-5.81,5.08-15.25,5.08-20.33,0
		c-5.81-5.81-5.81-15.25,0-21.06L155.55,223.9c-40.66-51.55-37.76-128.52,9.44-174.99c51.55-50.83,134.33-50.83,185.16,0
		C400.98,99.73,400.25,182.51,350.15,234.06z M329.82,69.23c-39.94-39.21-104.56-39.21-143.77,0c-39.94,39.94-39.21,103.83,0,144.5
		c39.21,39.93,103.83,39.93,143.77,0C369.03,173.79,369.76,108.44,329.82,69.23z"/>
</g>
</svg>
