<svg id="Calque_1" data-name="Calque 1" xmlns="http://www.w3.org/2000/svg" viewBox="0 0 453.54 453.54"><defs><style>.cls-1{fill:#545454;}</style></defs><path class="cls-1" d="M350.59,215.68c-16.13-2-32.31-3.77-48.52-5.05s-32.34-2.11-48.54-2.38-32.16,0-48.21.95c-18.53,1.09-37,3.18-55.34,5.93A476.85,476.85,0,0,0,102,224.79q-3,.77-5.9,1.56a21.49,21.49,0,0,0-9.7,5.1,21.66,21.66,0,0,0-7.34,8A21.2,21.2,0,0,0,75.72,250a21.57,21.57,0,0,0,.51,11.37l2.87,6.81a28.71,28.71,0,0,0,10.23,10.22l6.81,2.87a28.64,28.64,0,0,0,15.15,0,472.52,472.52,0,0,1,47.65-10.25c4.52-.74,9.05-1.4,13.58-2l-7.58,1a576.38,576.38,0,0,1,72.26-4.9c24.22-.17,48.44,1,72.56,3.11q20.46,1.8,40.83,4.41a31.73,31.73,0,0,0,20.16-8.34,21.39,21.39,0,0,0,5.89-9.18,21.45,21.45,0,0,0,2.45-11l-1-7.57A28.58,28.58,0,0,0,370.75,224L365,219.57a28.51,28.51,0,0,0-14.39-3.89Z"/></svg>