<?xml version="1.0" encoding="utf-8"?>
<!-- Generator: Adobe Illustrator 23.0.1, SVG Export Plug-In . SVG Version: 6.00 Build 0)  -->
<svg version="1.1" id="Calque_1" xmlns="http://www.w3.org/2000/svg" xmlns:xlink="http://www.w3.org/1999/xlink" x="0px" y="0px"
	 viewBox="0 0 400 400" style="enable-background:new 0 0 400 400;" xml:space="preserve">
<g>
	<path d="M17.5,103.22L8.52,78.19l137.33-44.92l45.56,136.69l-25.03,7.7l-30.8-93.05l-46.85,91.77
		c-25.03,49.41-10.91,82.14,39.15,107.17l-11.55,22.46c-62.25-31.44-82.78-77.65-50.7-141.82l46.21-91.77L17.5,103.22z
		 M382.66,303.44l8.34,25.03l-136.05,44.92L209.38,236.7l25.03-8.34l31.45,94.33l45.56-91.77c25.03-50.06,10.27-82.79-39.15-107.82
		l10.91-22.46c62.89,31.44,82.79,78.93,51.34,141.82l-46.21,91.77L382.66,303.44z"/>
</g>
</svg>
