<?xml version="1.0" encoding="utf-8"?>
<!-- Generator: Adobe Illustrator 23.0.1, SVG Export Plug-In . SVG Version: 6.00 Build 0)  -->
<svg version="1.1" id="Calque_1" xmlns="http://www.w3.org/2000/svg" xmlns:xlink="http://www.w3.org/1999/xlink" x="0px" y="0px"
	 viewBox="0 0 400 400" style="enable-background:new 0 0 400 400;" xml:space="preserve">
<g>
	<path d="M10.6,364.4c6,0.8,12.8,0.8,18.1,0.8c36.9,0,70.8-12.8,97.2-33.1c-34.7-0.7-63.3-23.3-72.3-54.2c3.8,0.8,9,1.5,14.3,1.5
		c6.8,0,14.3-0.8,20.3-3c-35.4-6.8-61.8-38.4-61.8-76.8v-0.8c9.8,6,21.8,9.8,34.6,9.8c-21.1-13.5-34.7-37.7-34.7-64.8
		c0-14.3,3.8-27.9,10.5-39.2c38.4,47.5,95.7,78.3,161.2,81.4c-1.5-5.3-2.3-11.3-2.3-18.1c0-42.2,34.6-77.6,77.6-77.6
		c22.6,0,42.9,9.8,57.2,24.8c18.1-3.8,34.6-9.8,49.7-18.8c-6,18.1-18.1,33.2-34.6,42.9c16.6-2.2,30.9-6,45.2-12.1
		c-10.5,15.1-24.1,29.4-39.2,39.9v9.8c0,103.9-78.3,222.2-221.4,222.2C86.7,399.1,45.3,386.3,10.6,364.4z"/>
</g>
</svg>
