<svg id="Calque_1" data-name="Calque 1" xmlns="http://www.w3.org/2000/svg" viewBox="0 0 453.54 453.54"><defs><style>.cls-1{fill:#545454;}</style></defs><path class="cls-1" d="M323.72,202.18c-6.61-14.94-14.64-29.32-22.49-43.63Q288.29,135,274.66,111.76c-2.73-4.62-5.39-9.34-8.45-13.75a21.47,21.47,0,0,0-7.34-8,21.61,21.61,0,0,0-9.7-5.11l-7.57-1a28.31,28.31,0,0,0-14.39,3.89,143.76,143.76,0,0,1-12.59,8.06c-6.46,3.86-13,7.59-19.57,11.27-14.54,8.18-29.2,16.16-43.89,24.08q-8.53,4.61-17.08,9.18a21.57,21.57,0,0,0-8,7.34,21.41,21.41,0,0,0-5.1,9.69,21.57,21.57,0,0,0-.51,11.37,21.2,21.2,0,0,0,3.38,10.59l4.46,5.77a28.48,28.48,0,0,0,12.58,7.33l7.57,1a28.41,28.41,0,0,0,14.39-3.89q17.79-9.56,35.53-19.19c14.41-7.86,28.81-15.77,43-24.11A157.41,157.41,0,0,0,256,137l-39-10.22c2.57,3.7,4.83,7.65,7.13,11.53q6.1,10.26,12,20.63c9.43,16.52,18.69,33.14,27.51,50,3.8,7.25,7.57,14.53,10.88,22a21.57,21.57,0,0,0,7.34,8,25.6,25.6,0,0,0,21.06,5.61,21.21,21.21,0,0,0,10.59-3.39l5.77-4.45a28.39,28.39,0,0,0,7.33-12.58l1-7.57a28.41,28.41,0,0,0-3.89-14.39Z"/><path class="cls-1" d="M233.09,112.17A89.43,89.43,0,0,0,225,123.35a72.85,72.85,0,0,0-3.48,6.89,193.3,193.3,0,0,0-9.08,24.25c-4.45,15.27-7.36,31-9.79,46.69C199.38,222,196.92,243,195.06,264q-2.49,28.1-3.72,56.27c-.74,16.21-1.22,32.43-1.31,48.66,0,1.72,0,3.44,0,5.16a31.68,31.68,0,0,0,8.34,20.15,21.27,21.27,0,0,0,9.17,5.89,21.42,21.42,0,0,0,11,2.46l7.57-1a28.48,28.48,0,0,0,12.58-7.33l4.45-5.77a28.38,28.38,0,0,0,3.9-14.38c0-17.95.5-35.9,1.32-53.82.95-21,2.35-42,4.33-62.89q1.67-17.67,4-35.29l-1,7.58c1.53-11.4,3.31-22.76,5.53-34.05a282.86,282.86,0,0,1,7.05-28.89c1.36-4.4,2.88-8.75,4.67-13l-2.88,6.8a59.61,59.61,0,0,1,7.3-13.16l-4.46,5.77.55-.69a21.36,21.36,0,0,0,5.89-9.17,21.51,21.51,0,0,0,2.46-11,21.52,21.52,0,0,0-2.46-11,21.36,21.36,0,0,0-5.89-9.17l-5.77-4.45a28.27,28.27,0,0,0-14.38-3.89l-7.58,1a28.58,28.58,0,0,0-12.58,7.33Z"/></svg>