<svg id="Calque_1" data-name="Calque 1" xmlns="http://www.w3.org/2000/svg" viewBox="0 0 453.54 453.54"><defs><style>.cls-1{fill:#545454;}</style></defs><path class="cls-1" d="M99.47,150.75a682.27,682.27,0,0,0-5.69,74.47c-.21,12.31,0,24.63.74,36.92.87,14.7,2.59,29.32,4.76,43.88a362.75,362.75,0,0,0,8.6,41.26A21.49,21.49,0,0,0,113,357a21.55,21.55,0,0,0,8,7.34,21.23,21.23,0,0,0,10.6,3.38,21.53,21.53,0,0,0,11.36-.51l6.81-2.87A28.81,28.81,0,0,0,160,354.09l2.87-6.81a28.64,28.64,0,0,0,0-15.15,369.88,369.88,0,0,1-9.41-47l1,7.57a440.26,440.26,0,0,1-3.73-55.26c-.13-18.52.77-37,2.38-55.49.91-10.43,2.06-20.84,3.37-31.22a21.45,21.45,0,0,0-2.45-11A25.64,25.64,0,0,0,139,124.7a21.45,21.45,0,0,0-11-2.45l-7.57,1a28.39,28.39,0,0,0-12.58,7.33l-4.46,5.76a28.51,28.51,0,0,0-3.89,14.39Z"/><path class="cls-1" d="M303.5,159.35a366.57,366.57,0,0,1,9.41,47l-1-7.58A440.31,440.31,0,0,1,315.63,254c.12,18.52-.77,37-2.39,55.49-.91,10.42-2.06,20.83-3.37,31.22l28.5-28.5H145.57a21.45,21.45,0,0,0-11,2.45,25.71,25.71,0,0,0-15.07,15.07,21.45,21.45,0,0,0-2.45,11l1,7.57a28.39,28.39,0,0,0,7.33,12.58l5.76,4.46a28.51,28.51,0,0,0,14.39,3.89h192.8a21.41,21.41,0,0,0,11-2.46,21.36,21.36,0,0,0,9.17-5.89l4.46-5.77a28.37,28.37,0,0,0,3.89-14.38,682.27,682.27,0,0,0,5.69-74.47c.21-12.31,0-24.64-.74-36.93-.87-14.69-2.58-29.31-4.76-43.87a362.88,362.88,0,0,0-8.59-41.27,21.51,21.51,0,0,0-5.1-9.69,21.57,21.57,0,0,0-8-7.34,21.2,21.2,0,0,0-10.6-3.38,21.53,21.53,0,0,0-11.36.51l-6.81,2.87a28.6,28.6,0,0,0-10.22,10.22l-2.88,6.81a28.84,28.84,0,0,0,0,15.15Z"/><path class="cls-1" d="M86,214.7c10.19-6.2,19.89-13.23,29.49-20.31,14.55-10.74,28.84-21.85,43-33.16q19.34-15.49,38.16-31.64c10.72-9.22,21.34-18.6,31.52-28.43,7.91-7.62,16-15.67,21.95-25,.31-.48.59-1,.85-1.46L211.9,85a54.65,54.65,0,0,1,10.46,6.52L216.59,87c7.68,6,14.31,13.18,21.08,20.15a227,227,0,0,0,28.07,24.07c8.94,6.63,18.37,12.58,27.85,18.4a278.43,278.43,0,0,0,29.29,15.72c13.45,6.21,27.23,11.72,41,17.16a21.77,21.77,0,0,0,11.37.51,21.21,21.21,0,0,0,10.59-3.39,21.49,21.49,0,0,0,8-7.34,21.41,21.41,0,0,0,5.1-9.69l1-7.58a28.5,28.5,0,0,0-3.89-14.38l-4.46-5.77A28.58,28.58,0,0,0,379,127.57c-7.19-2.84-14.37-5.69-21.5-8.69l6.81,2.87a328.51,328.51,0,0,1-29.8-14.15c-9.6-5.26-18.92-11.16-28.05-17.2-5.21-3.45-10.33-7-15.28-10.86L297,84a190.18,190.18,0,0,1-20.16-18.32c-6.15-6.36-12.24-12.86-19.18-18.38-5.34-4.24-10.72-8.67-17-11.55a21.2,21.2,0,0,0-10.6-3.38,21.53,21.53,0,0,0-11.36.51c-6.86,2.22-13.62,6.5-17,13.1a27.13,27.13,0,0,1-2.62,3.93l4.46-5.77A135,135,0,0,1,192,56.75c-5.8,5.79-11.82,11.36-17.9,16.86-15.18,13.71-30.83,26.9-46.69,39.81q-14,11.37-28.21,22.39l5.77-4.45c-12.85,9.92-25.84,19.71-39.34,28.73-2.77,1.85-5.57,3.66-8.42,5.39a21.55,21.55,0,0,0-8,7.34,25.63,25.63,0,0,0-5.61,21.06A21.23,21.23,0,0,0,47,204.48c3.92,6.08,9.76,11.44,17,13.09l7.58,1A28.27,28.27,0,0,0,86,214.7Z"/><path class="cls-1" d="M177,297.46a78.32,78.32,0,0,0-11.44,1.35,17.41,17.41,0,0,0-3.63,1,85.57,85.57,0,0,0-8,3.41,14.09,14.09,0,0,0-1.41.83,81,81,0,0,0-6.74,5.19,13.12,13.12,0,0,0-1.21,1.14,77.74,77.74,0,0,0-5.22,6.67c-.31.42-.6.83-.87,1.27a59.13,59.13,0,0,0-4.11,9.3,28.69,28.69,0,0,0-1.59,6.4,121.78,121.78,0,0,0-1.52,14.47c-.06,2.48,0,5,0,7.44,0,3.59-.09,7.18,0,10.77a132.25,132.25,0,0,0,1.49,13.43,28.68,28.68,0,0,0,1.33,5.78c1,2.67,2.12,5.32,3.31,7.89.19.39.38.79.6,1.16a10.59,10.59,0,0,0,.63,1c1.43,2,3.08,4.2,4.69,6.06.14.16.28.32.43.47l.39.36a68.43,68.43,0,0,0,6,4.67,7.38,7.38,0,0,0,1,.63,61.13,61.13,0,0,0,7.13,3l.5.17c.17.05.35.08.53.12l.27,0c2,.36,5.77.92,7.77,1a9.28,9.28,0,0,0,1.18,0,79.62,79.62,0,0,0,8-1.07c.26,0,.51-.08.77-.14a12.67,12.67,0,0,0,1.48-.46,70.77,70.77,0,0,0,7.24-3.07l.73-.4.58-.4c2-1.41,4.27-3.15,6.15-4.75a11.64,11.64,0,0,0,1.13-1.09,83.12,83.12,0,0,0,5.23-6.74,15.28,15.28,0,0,0,1-1.53c.26-.47.5-.95.72-1.45,1.23-2.7,2.41-5.44,3.46-8.22a32,32,0,0,0,1.07-3.45,108.59,108.59,0,0,0,2.24-14.66c.53-4.88.44-9.8.77-14.7.24-3.4.5-6.79.59-10.2a93.58,93.58,0,0,0-1.47-17,25.3,25.3,0,0,0-1-4.21,21.71,21.71,0,0,0-5.1-9.69,21.57,21.57,0,0,0-8-7.34,21.2,21.2,0,0,0-10.6-3.38,21.53,21.53,0,0,0-11.36.51l-6.81,2.87a28.63,28.63,0,0,0-10.22,10.23l-2.88,6.8a28.88,28.88,0,0,0,0,15.16,26.51,26.51,0,0,1,1.1,4.74l-1-7.58c.91,6.84.12,13.79-.32,20.63-.31,4.93-.22,9.85-.86,14.75l1-7.58a39.57,39.57,0,0,1-2.47,9.87l2.88-6.81a18,18,0,0,1-2.23,3.88l4.46-5.77a11.65,11.65,0,0,1-1.89,1.89l5.77-4.46a8.88,8.88,0,0,1-1.84,1.06l6.81-2.87a10.41,10.41,0,0,1-2.25.61l7.57-1a7.66,7.66,0,0,1-1.79,0l7.58,1a6.61,6.61,0,0,1-1.39-.36l6.8,2.87a6.05,6.05,0,0,1-1.34-.79l5.77,4.46a7.63,7.63,0,0,1-1.25-1.29l4.45,5.77a12.44,12.44,0,0,1-1.36-2.41l2.88,6.81a26.62,26.62,0,0,1-1.66-6.7l1,7.58a98,98,0,0,1-.49-13.49c0-5.74-.27-11.5.48-17.21l-1,7.58a27.8,27.8,0,0,1,1.71-6.77l-2.88,6.81a16.71,16.71,0,0,1,2-3.53l-4.46,5.77a13.75,13.75,0,0,1,2.35-2.35l-5.77,4.46a14.84,14.84,0,0,1,2.83-1.65l-6.8,2.87a19.27,19.27,0,0,1,4.78-1.26l-7.57,1c1-.12,2.05-.19,3.08-.21A21.45,21.45,0,0,0,188,352a25.57,25.57,0,0,0,15.07-15.07,21.45,21.45,0,0,0,2.45-11l-1-7.57a28.46,28.46,0,0,0-7.32-12.58l-5.77-4.45a28.42,28.42,0,0,0-14.39-3.9Z"/><path class="cls-1" d="M279.4,415.45a79.87,79.87,0,0,0,11.44-1.34,18.73,18.73,0,0,0,3.63-1,85.64,85.64,0,0,0,8-3.42,12.41,12.41,0,0,0,1.41-.83,78.75,78.75,0,0,0,6.74-5.18,12,12,0,0,0,1.21-1.15,76.22,76.22,0,0,0,5.22-6.67c.31-.41.6-.83.87-1.27a58.72,58.72,0,0,0,4.11-9.3,28.69,28.69,0,0,0,1.59-6.4,121.34,121.34,0,0,0,1.52-14.47c.06-2.48,0-5,0-7.44,0-3.59.09-7.18,0-10.76a131.93,131.93,0,0,0-1.49-13.43A28.77,28.77,0,0,0,322.3,327c-1-2.66-2.12-5.32-3.31-7.88-.19-.4-.38-.79-.6-1.17a9.87,9.87,0,0,0-.64-.95c-1.42-2-3.07-4.21-4.68-6.06-.14-.16-.28-.32-.43-.47s-.26-.24-.39-.36a66.69,66.69,0,0,0-6-4.68,8.46,8.46,0,0,0-1-.63,64.77,64.77,0,0,0-7.13-3l-.5-.17c-.17-.05-.35-.08-.53-.12l-.27,0c-2-.35-5.77-.92-7.77-1a9.29,9.29,0,0,0-1.18,0c-2.59.17-5.45.63-8,1.06l-.77.14a12.72,12.72,0,0,0-1.48.47,67.73,67.73,0,0,0-7.24,3.07,7.43,7.43,0,0,0-.73.4c-.2.12-.39.26-.58.4-2,1.41-4.27,3.14-6.15,4.74a13,13,0,0,0-1.13,1.09c-1.88,2.11-3.58,4.46-5.24,6.74-.35.49-.67,1-1,1.53s-.5,1-.72,1.45c-1.23,2.7-2.41,5.45-3.46,8.22a32.71,32.71,0,0,0-1.07,3.45A108.83,108.83,0,0,0,248,347.85c-.53,4.88-.44,9.8-.78,14.7-.23,3.4-.49,6.8-.58,10.2a93.77,93.77,0,0,0,1.47,17,25.19,25.19,0,0,0,1,4.2,31.86,31.86,0,0,0,13.1,17,21.2,21.2,0,0,0,10.6,3.38,21.64,21.64,0,0,0,11.36-.5L291,411a28.6,28.6,0,0,0,10.22-10.22L304.1,394a28.84,28.84,0,0,0,0-15.15,26.62,26.62,0,0,1-1.1-4.75l1,7.58c-.91-6.84-.12-13.78.32-20.63.31-4.92.22-9.84.86-14.74l-1,7.57a39.39,39.39,0,0,1,2.47-9.86l-2.88,6.8a18.25,18.25,0,0,1,2.23-3.88l-4.46,5.77a11.21,11.21,0,0,1,1.89-1.88l-5.77,4.45a9.35,9.35,0,0,1,1.84-1.06l-6.81,2.87a9.85,9.85,0,0,1,2.25-.6l-7.57,1a8.24,8.24,0,0,1,1.79,0l-7.58-1a6.07,6.07,0,0,1,1.39.37l-6.81-2.88a6.28,6.28,0,0,1,1.35.79l-5.77-4.46a7.63,7.63,0,0,1,1.25,1.29l-4.45-5.77a11.89,11.89,0,0,1,1.35,2.41L267,341.37a26.73,26.73,0,0,1,1.66,6.7l-1-7.57a97.89,97.89,0,0,1,.49,13.48c0,5.74.27,11.51-.48,17.21l1-7.57a27.72,27.72,0,0,1-1.71,6.76l2.88-6.81a16.47,16.47,0,0,1-2,3.53l4.46-5.77a13.75,13.75,0,0,1-2.35,2.35l5.77-4.45a14.08,14.08,0,0,1-2.84,1.64l6.81-2.87a19.27,19.27,0,0,1-4.78,1.26l7.57-1a28.79,28.79,0,0,1-3.08.21,21.45,21.45,0,0,0-11,2.45A25.64,25.64,0,0,0,253.35,376a21.5,21.5,0,0,0-2.45,11l1,7.58a28.54,28.54,0,0,0,7.33,12.57l5.77,4.46a28.41,28.41,0,0,0,14.39,3.89Z"/><path class="cls-1" d="M191.78,176a39.51,39.51,0,0,0-.9,4.16,111.17,111.17,0,0,0-1.51,12.19,31.66,31.66,0,0,0,.13,5.06c.41,3.7.69,8.35,2.11,12.06,2.39,6.22,4.52,11,9.41,15.79a36.26,36.26,0,0,0,15.93,9.2,37.11,37.11,0,0,0,19.26-.09,11.29,11.29,0,0,0,1.12-.37c2.57-.94,5.2-2.1,7.69-3.24a19.31,19.31,0,0,0,2.39-1.35,66.1,66.1,0,0,0,10-7.94,81.41,81.41,0,0,0,8.24-10.15,27.21,27.21,0,0,0,2.8-4.62,75.52,75.52,0,0,0,3.62-8.67,14.34,14.34,0,0,0,.5-2.25c.37-2.58,1.22-6.63,1.12-9.78,0-.43,0-.85-.1-1.28a82.16,82.16,0,0,0-1.2-8.55,49.41,49.41,0,0,0-3.45-8.6,11.8,11.8,0,0,0-1-1.88c-1.5-2.16-3.23-4.39-4.92-6.39-.22-.25-.43-.5-.67-.74a51.23,51.23,0,0,0-7.18-5.68,39.06,39.06,0,0,0-10.39-4.69,16.54,16.54,0,0,0-2.21-.53c-2.81-.49-5.76-.89-8.61-1.15-.42,0-.84,0-1.27-.06a62.6,62.6,0,0,0-9.66,1.16,16.68,16.68,0,0,0-2.52.56,38.84,38.84,0,0,0-10.89,5,52.33,52.33,0,0,0-7.47,6,82.36,82.36,0,0,0-5.1,6.53c-.31.4-.6.82-.87,1.25a21.2,21.2,0,0,0-3.38,10.6,25.59,25.59,0,0,0,5.61,21.05,21.46,21.46,0,0,0,8,7.34l6.81,2.88a28.64,28.64,0,0,0,15.15,0l6.81-2.88a28.71,28.71,0,0,0,10.23-10.22,14.89,14.89,0,0,1,.87-1.26l-4.46,5.77a14,14,0,0,1,2.25-2.23l-5.77,4.45a14.74,14.74,0,0,1,3.08-1.77l-6.81,2.88a15.62,15.62,0,0,1,3.62-1l-7.58,1a15.74,15.74,0,0,1,3.94,0l-7.58-1a15,15,0,0,1,3.73,1l-6.81-2.87a12.94,12.94,0,0,1,2.7,1.55l-5.77-4.46a11.76,11.76,0,0,1,2,2L218.38,194a11.32,11.32,0,0,1,1.37,2.33l-2.88-6.81a11.47,11.47,0,0,1,.75,2.77l-1-7.58a14.47,14.47,0,0,1,0,3.48l1-7.58a13.43,13.43,0,0,1-1,3.52l2.87-6.81a28.5,28.5,0,0,1-3.63,6l4.45-5.77a35,35,0,0,1-5.85,5.94l5.77-4.45a20.94,20.94,0,0,1-4.51,2.73l6.8-2.87a11.59,11.59,0,0,1-2.72.77l7.58-1a8,8,0,0,1-1.89,0l7.58,1a9,9,0,0,1-2.16-.58l6.81,2.87a8.26,8.26,0,0,1-1.59-.95l5.77,4.46a8.74,8.74,0,0,1-1.29-1.29l4.46,5.77a10.76,10.76,0,0,1-1.3-2.22l2.87,6.81a17.57,17.57,0,0,1-1.15-4.45l1,7.58a34,34,0,0,1,.14-8.67l-1,7.57a40,40,0,0,1,1.09-5.42,21.57,21.57,0,0,0,.51-11.37,21.2,21.2,0,0,0-3.38-10.59,21.66,21.66,0,0,0-7.34-8,21.49,21.49,0,0,0-9.7-5.1l-7.57-1a28.41,28.41,0,0,0-14.39,3.89l-5.77,4.46A28.54,28.54,0,0,0,191.78,176Z"/></svg>