<svg id="Calque_1" data-name="Calque 1" xmlns="http://www.w3.org/2000/svg" viewBox="0 0 453.54 453.54"><defs><style>.cls-1{fill:#545454;}.cls-2{fill:#fff;}</style></defs><path class="cls-1" d="M62.15,398.5l93,25.5H291.17c12,0,88.53-25.5,88.53-25.5l41.72-53.31,13.91-148.34L370.43,85.59l-104.31-44s-31.31-2.32-43.47,0-63.09-1-63.09-1L101.55,74,73.74,97.18l-27.82,70.2L20.43,213.07v88.08Z"/><polygon class="cls-2" points="130.03 167.1 173.91 167.1 173.91 206.59 173.91 243.89 173.91 300.94 173.91 342.62 130.03 342.62 130.03 322.07 130.03 279 134.52 232.99 135.46 204.63 130.03 167.1"/><path class="cls-2" d="M193.12,342.62c0-2.83,3.78-28.35,3.78-28.35V207.47L195,183.84l1.89-9.45h18.9l26.46-7.29v11.07l23.63,5.67,9.45-2.84h12.29s9.45-.94,16.07,3.79,15.12,5.67,15.12,5.67l6.62,16.06v13.24l4.72,19.84v46.32s-3.78,34.5-3.78,36.15,3.78,20.55,3.78,20.55H280.07l3.78-31.19.95-46.31,1.89-19.85-1.89-18.9-6.62-9.45-16.54-2.84-10.87.95-9.45,18.9-2.84,17v12.28l-.94,23.63v45.37l-2.84,10.39Z"/><path class="cls-2" d="M126,113.9c-.94,2.84,0,20.79,0,20.79l4,9.45L152,150.76l10-6.62,12-18.9v-17l-12-7.56L144,95,130,104.45Z"/></svg>