<?xml version="1.0" encoding="utf-8"?>
<!-- Generator: Adobe Illustrator 23.0.1, SVG Export Plug-In . SVG Version: 6.00 Build 0)  -->
<svg version="1.1" id="Calque_1" xmlns="http://www.w3.org/2000/svg" xmlns:xlink="http://www.w3.org/1999/xlink" x="0px" y="0px"
	 viewBox="0 0 400 400" style="enable-background:new 0 0 400 400;" xml:space="preserve">
<g>
	<path d="M159.6,166.3l-92.5,94.1c-52.3,0-55.5-35.4-55.5-47.4s5.6-24.1,15.3-33c8-7.2,20.1-13.7,33-13.7L159.6,166.3L159.6,166.3z
		 M333.3,148.6L133.8,347.3c-19.3,18.5-49.1,18.5-66.8-1.6c-18.5-18.5-18.5-48.2,0.8-66L267.3,81.9c17.7-18.5,48.2-18.5,65.9,0.8
		C351,100.4,351,131,333.3,148.6z M190.9,137.4l-15.3,15.3H75.1l-6.4-8c-17.7-17.7-16.9-47.5,1.6-66c8.8-8.8,20.9-12.9,33.8-12.9
		c11.3,0,24.9,4.8,32.2,14.5L190.9,137.4z M199.8,301.5l46.7,48.3c0,25.7-20.1,49.9-46.6,49.9c-25.7-0.8-46.6-17.7-46.6-49.9
		L199.8,301.5z M203.8,125.3l-46.7-46.7c0-25.7,22.5-50.7,46.6-50.7c25.7,0,46.6,18.5,46.6,50.7L203.8,125.3z M329.3,349.7
		c-17.7,17.7-47.5,16.1-66-0.8l-53.9-57.1l16.9-16.1h98.1l6.4,8C348.6,301.5,348.6,331.2,329.3,349.7z M388,214.6
		c0,13.7-5.6,24.9-14.5,33.8c-8.9,8-20.9,12.9-33,12.9H240l94.1-93.3C367,166.3,388,188.9,388,214.6z"/>
</g>
</svg>
