<svg id="Calque_1" data-name="Calque 1" xmlns="http://www.w3.org/2000/svg" viewBox="0 0 453.54 453.54"><defs><style>.cls-1{fill:#545454;}</style></defs><path class="cls-1" d="M367.26,211.65c-18.12-2.29-36.28-4.23-54.49-5.68s-36.49-2.39-54.77-2.7-36.29,0-54.4,1.07c-20.6,1.21-41.09,3.51-61.49,6.56a538.67,538.67,0,0,0-53.83,10.84c-2.29.59-4.56,1.19-6.83,1.8a21.49,21.49,0,0,0-9.7,5.1,21.57,21.57,0,0,0-7.34,8A21.2,21.2,0,0,0,61,247.24a21.54,21.54,0,0,0,.51,11.36l2.87,6.81a28.63,28.63,0,0,0,10.23,10.22l6.81,2.88a28.84,28.84,0,0,0,15.15,0,533.33,533.33,0,0,1,53.78-11.58q7.67-1.23,15.36-2.27l-7.58,1a648.26,648.26,0,0,1,81.42-5.51c27.28-.19,54.56,1.14,81.74,3.52q23,2,45.94,5a31.62,31.62,0,0,0,20.15-8.35,21.38,21.38,0,0,0,5.9-9.17,21.5,21.5,0,0,0,2.45-11l-1-7.58A28.35,28.35,0,0,0,387.41,220l-5.76-4.46a28.41,28.41,0,0,0-14.39-3.89Z"/><path class="cls-1" d="M208.59,96.87c-2.29,18.12-4.23,36.29-5.67,54.5s-2.39,36.49-2.71,54.77,0,36.29,1.07,54.4c1.21,20.59,3.51,41.09,6.56,61.49a535.9,535.9,0,0,0,10.85,53.83q.87,3.42,1.8,6.83a31.91,31.91,0,0,0,13.09,17,21.28,21.28,0,0,0,10.6,3.39,21.73,21.73,0,0,0,11.36-.51l6.81-2.88a28.63,28.63,0,0,0,10.23-10.22l2.87-6.81a28.64,28.64,0,0,0,0-15.15,533.29,533.29,0,0,1-11.57-53.78q-1.25-7.67-2.27-15.36l1,7.57a649.85,649.85,0,0,1-5.5-81.41c-.19-27.29,1.13-54.57,3.51-81.75q2-23,5-45.94a21.5,21.5,0,0,0-2.45-11,21.36,21.36,0,0,0-5.89-9.17,21.36,21.36,0,0,0-9.17-5.89,21.52,21.52,0,0,0-11-2.46l-7.57,1a28.58,28.58,0,0,0-12.58,7.33l-4.45,5.77a28.38,28.38,0,0,0-3.9,14.38Z"/></svg>