<svg id="Calque_1" data-name="Calque 1" xmlns="http://www.w3.org/2000/svg" viewBox="0 0 453.54 453.54"><defs><style>.cls-1{fill:#545454;}</style></defs><path class="cls-1" d="M166.17,293.39a67,67,0,0,1-13-7.75L159,290.1a60.48,60.48,0,0,1-10.62-10.59l4.46,5.76a64,64,0,0,1-8.22-14.16l2.87,6.81a84.06,84.06,0,0,1-5.61-21.15l1,7.58a127.35,127.35,0,0,1-.45-27.6c.23-2.76.54-5.51.91-8.25l-1,7.57a230.85,230.85,0,0,1,12.26-47.94q2.44-6.67,5.2-13.22l-2.87,6.81a269.52,269.52,0,0,1,24-45.09q3.47-5.17,7.25-10.12l-4.46,5.77c2.46-3.18,5-6.28,7.78-9.22a21.36,21.36,0,0,0,5.89-9.17,21.41,21.41,0,0,0,2.46-11,21.36,21.36,0,0,0-2.46-11,21.3,21.3,0,0,0-5.89-9.17l-5.77-4.46a28.27,28.27,0,0,0-14.38-3.89l-7.58,1a28.39,28.39,0,0,0-12.58,7.33,198.26,198.26,0,0,0-16.66,21,229.83,229.83,0,0,0-12.25,19.48q-6.31,11.17-11.6,22.89c-4.62,10.23-8.94,20.64-12.62,31.25A246.07,246.07,0,0,0,85.47,236.2a130.64,130.64,0,0,0,0,24.62c1,9.93,2.4,20,5.9,29.38a113.68,113.68,0,0,0,7.44,16.64,103.4,103.4,0,0,0,10.42,14.44A59.58,59.58,0,0,0,117,329a104,104,0,0,0,15,10.83c1.76,1,3.57,1.91,5.41,2.75A21.1,21.1,0,0,0,148,346a21.64,21.64,0,0,0,11.36-.5,21.52,21.52,0,0,0,9.69-5.11,21.55,21.55,0,0,0,7.34-8l2.88-6.81a28.84,28.84,0,0,0,0-15.15l-2.88-6.81a28.71,28.71,0,0,0-10.22-10.23Z"/><path class="cls-1" d="M55.12,136.16a431.76,431.76,0,0,0,47-2.34c17.83-2,35.62-4.74,52.92-9.59a231.13,231.13,0,0,0,25.35-8.72l-35-19.9a89.83,89.83,0,0,1,3,12c1.09,5.64,2,11.32,2.82,17,.54,3.63,1,7.25,1.53,10.89l-1-7.58c2.72,20.27,4.75,40.67,8,60.86a71.64,71.64,0,0,0,1.58,7.95,21.46,21.46,0,0,0,5.1,9.69,21.57,21.57,0,0,0,8,7.34,21.2,21.2,0,0,0,10.59,3.38,21.57,21.57,0,0,0,11.37-.51l6.81-2.87a28.63,28.63,0,0,0,10.22-10.23l2.88-6.8a28.88,28.88,0,0,0,0-15.16c-1.66-5.87-2.25-12.13-3.06-18.15l1,7.57c-1.59-11.81-3-23.66-4.5-35.48-1.81-14-3.54-28.12-6.17-42a92.78,92.78,0,0,0-3.16-13,21.46,21.46,0,0,0-5.1-9.69,21.57,21.57,0,0,0-8-7.34l-6.81-2.87a28.64,28.64,0,0,0-15.15,0,243.21,243.21,0,0,1-48.54,14.06c-4.69.87-9.41,1.61-14.13,2.25l7.57-1a413.35,413.35,0,0,1-55,3.32,21.51,21.51,0,0,0-11,2.46A21.36,21.36,0,0,0,35,87.51a21.27,21.27,0,0,0-5.89,9.17,21.41,21.41,0,0,0-2.46,11l1,7.58A28.48,28.48,0,0,0,35,127.82l5.77,4.45a28.27,28.27,0,0,0,14.38,3.89Z"/><path class="cls-1" d="M232,276.88c3.57,16.05,8.66,31.81,13.58,47.49,5.37,17.08,10.94,34.1,16.85,51,2.57,7.35,5.28,14.58,8.38,21.74a31.88,31.88,0,0,0,17,13.09l7.57,1a28.31,28.31,0,0,0,14.39-3.89c.78-.37,1.57-.72,2.36-1l-6.81,2.87c11.83-5,24.22-8.77,36.43-12.71,15.09-4.88,30.25-9.57,45.42-14.21q8.72-2.67,17.44-5.31a31.86,31.86,0,0,0,17-13.1,21.2,21.2,0,0,0,3.38-10.59,21.57,21.57,0,0,0-.51-11.37l-2.87-6.81a28.6,28.6,0,0,0-10.22-10.22L404.67,322a28.64,28.64,0,0,0-15.15,0q-19.47,5.91-38.91,11.93c-15.65,4.87-31.3,9.79-46.78,15.2a225.44,225.44,0,0,0-22.77,9l39,10.23-.15-.35,2.88,6.81c-1.81-4.3-3.32-8.75-4.86-13.15-2.64-7.52-5.19-15.06-7.71-22.62-5.93-17.86-11.68-35.79-17-53.86-2.27-7.76-4.51-15.56-6.27-23.46a21.41,21.41,0,0,0-5.1-9.69,21.55,21.55,0,0,0-8-7.34,21.26,21.26,0,0,0-10.6-3.38,21.53,21.53,0,0,0-11.36.51l-6.81,2.87a28.63,28.63,0,0,0-10.23,10.22L232,261.72a28.67,28.67,0,0,0,0,15.16Z"/><path class="cls-1" d="M315.72,388.3c14.24-17.44,28.36-35.06,41.17-53.59,6-8.65,11.66-17.53,16.79-26.72a252,252,0,0,0,15.65-33.86,177.39,177.39,0,0,0,7.56-27.36c1.12-5.52,1.95-11.06,2.7-16.63.71-5.35,1.39-10.68,1.68-16.07.55-10.33-.45-20.39-2-30.61a91.78,91.78,0,0,0-2.38-11,141.78,141.78,0,0,0-6.5-17.1,93.54,93.54,0,0,0-11.86-20.11A176.16,176.16,0,0,0,366,120.15c-3.16-3.3-6.5-6.42-10-9.39q-2.73-2.33-5.57-4.55a21.36,21.36,0,0,0-9.17-5.89,25.83,25.83,0,0,0-22,0,21.36,21.36,0,0,0-9.17,5.89L305.69,112a28.41,28.41,0,0,0-3.89,14.39l1,7.57a28.48,28.48,0,0,0,7.33,12.58,133.76,133.76,0,0,1,23.39,23l-4.45-5.77a93.85,93.85,0,0,1,12.18,20.67l-2.87-6.81a90.87,90.87,0,0,1,6.15,22.83l-1-7.57a126.65,126.65,0,0,1-.44,33.46l1-7.58A182.17,182.17,0,0,1,332,265l2.87-6.81c-8.51,20.09-20.4,38.62-33.17,56.24q-5.4,7.46-11,14.72l4.45-5.77c-6.42,8.31-13,16.47-19.65,24.61a31.62,31.62,0,0,0-8.35,20.15,31.62,31.62,0,0,0,8.35,20.15l5.76,4.46a28.41,28.41,0,0,0,14.39,3.89l7.58-1a28.45,28.45,0,0,0,12.57-7.33Z"/></svg>